<svg xmlns="http://www.w3.org/2000/svg" version="1.1" xmlns:xlink="http://www.w3.org/1999/xlink" width="1000" height="1000"><metadata><rdf:RDF xmlns:rdf="http://www.w3.org/1999/02/22-rdf-syntax-ns#" xmlns:dc="http://purl.org/dc/elements/1.1/"><rdf:Description><dc:creator>RealFaviconGenerator</dc:creator><dc:source>https://realfavicongenerator.net</dc:source></rdf:Description></rdf:RDF></metadata><g clip-path="url(#SvgjsClipPath1264)"><rect width="1000" height="1000" fill="#ffffff"></rect><g transform="matrix(7.619047619047619,0,0,7.619047619047619,100,237.14285714285717)"><svg xmlns="http://www.w3.org/2000/svg" xmlns:v="https://svgstorm.com" viewBox="0 0 105 69" width="105" height="69"><g fill="None" fill-opacity="0.0" stroke="#FFFFFF" stroke-opacity="1.00" stroke-width="0.3"><path d="
M 0.00 69.00 
L 105.00 69.00
L 105.00 0.00
L 0.00 0.00
L 0.00 69.00
M 56.00 2.00 
C 65.16 5.01 58.98 22.35 49.00 18.00 C 39.02 13.65 45.41 -1.48 56.00 2.00
M 84.00 23.00 
C 88.29 35.27 96.18 46.32 99.00 59.00
C 90.11 52.70 89.18 38.54 83.00 29.00
C 79.09 35.96 74.97 40.06 72.08 48.08 C 69.19 56.09 63.26 61.68 60.23 51.77 C 57.20 41.86 53.28 40.11 50.00 31.00
C 42.14 39.54 40.28 54.20 31.00 61.00
C 31.70 54.16 36.58 47.68 39.77 41.77 C 42.96 35.86 44.52 26.92 51.00 25.00
C 53.86 34.91 61.53 43.04 64.00 53.00
C 73.29 46.16 74.51 29.74 84.00 23.00
M 6.00 25.00 
C 9.74 35.31 13.86 47.88 20.00 56.00
C 22.27 50.66 24.36 44.65 27.92 39.92 C 31.48 35.19 32.00 26.18 38.00 25.00
C 36.98 31.96 32.71 39.16 29.08 45.08 C 25.44 50.99 23.37 59.81 17.00 62.00
C 15.68 55.76 11.20 48.59 9.23 42.77 C 7.25 36.96 -0.69 28.68 6.00 25.00 Z"></path>
</g><g fill="None" fill-opacity="0.0" stroke="#000000" stroke-opacity="1.00" stroke-width="0.3"><path d="
M 56.00 2.00 
C 45.41 -1.48 39.02 13.65 49.00 18.00 C 58.98 22.35 65.16 5.01 56.00 2.00
M 54.00 5.00 
C 59.98 6.72 55.99 17.38 50.00 15.00 C 44.00 12.62 47.41 3.10 54.00 5.00 Z"></path>
</g><g fill="None" fill-opacity="0.0" stroke="#FFFFFF" stroke-opacity="1.00" stroke-width="0.3"><path d="
M 54.00 5.00 
C 47.41 3.10 44.00 12.62 50.00 15.00 C 55.99 17.38 59.98 6.72 54.00 5.00 Z"></path>
</g><g fill="None" fill-opacity="0.0" stroke="#000000" stroke-opacity="1.00" stroke-width="0.3"><path d="
M 84.00 23.00 
C 74.51 29.74 73.29 46.16 64.00 53.00
C 61.53 43.04 53.86 34.91 51.00 25.00
C 44.52 26.92 42.96 35.86 39.77 41.77 C 36.58 47.68 31.70 54.16 31.00 61.00
C 40.28 54.20 42.14 39.54 50.00 31.00
C 53.28 40.11 57.20 41.86 60.23 51.77 C 63.26 61.68 69.19 56.09 72.08 48.08 C 74.97 40.06 79.09 35.96 83.00 29.00
C 89.18 38.54 90.11 52.70 99.00 59.00
C 96.18 46.32 88.29 35.27 84.00 23.00 Z"></path>
</g><g fill="None" fill-opacity="0.0" stroke="#000000" stroke-opacity="1.00" stroke-width="0.3"><path d="
M 6.00 25.00 
C -0.69 28.68 7.25 36.96 9.23 42.77 C 11.20 48.59 15.68 55.76 17.00 62.00
C 23.37 59.81 25.44 50.99 29.08 45.08 C 32.71 39.16 36.98 31.96 38.00 25.00
C 32.00 26.18 31.48 35.19 27.92 39.92 C 24.36 44.65 22.27 50.66 20.00 56.00
C 13.86 47.88 9.74 35.31 6.00 25.00 Z"></path>
</g><g fill="#FFFFFF" fill-opacity="1.00" stroke="None">
<path d="
M 0.00 69.00 
L 105.00 69.00
L 105.00 0.00
L 0.00 0.00
L 0.00 69.00
M 56.00 2.00 
C 65.16 5.01 58.98 22.35 49.00 18.00 C 39.02 13.65 45.41 -1.48 56.00 2.00
M 84.00 23.00 
C 88.29 35.27 96.18 46.32 99.00 59.00
C 90.11 52.70 89.18 38.54 83.00 29.00
C 79.09 35.96 74.97 40.06 72.08 48.08 C 69.19 56.09 63.26 61.68 60.23 51.77 C 57.20 41.86 53.28 40.11 50.00 31.00
C 42.14 39.54 40.28 54.20 31.00 61.00
C 31.70 54.16 36.58 47.68 39.77 41.77 C 42.96 35.86 44.52 26.92 51.00 25.00
C 53.86 34.91 61.53 43.04 64.00 53.00
C 73.29 46.16 74.51 29.74 84.00 23.00
M 6.00 25.00 
C 9.74 35.31 13.86 47.88 20.00 56.00
C 22.27 50.66 24.36 44.65 27.92 39.92 C 31.48 35.19 32.00 26.18 38.00 25.00
C 36.98 31.96 32.71 39.16 29.08 45.08 C 25.44 50.99 23.37 59.81 17.00 62.00
C 15.68 55.76 11.20 48.59 9.23 42.77 C 7.25 36.96 -0.69 28.68 6.00 25.00 Z"></path>
</g><g fill="#000000" fill-opacity="1.00" stroke="None">
<path d="
M 56.00 2.00 
C 45.41 -1.48 39.02 13.65 49.00 18.00 C 58.98 22.35 65.16 5.01 56.00 2.00
M 54.00 5.00 
C 59.98 6.72 55.99 17.38 50.00 15.00 C 44.00 12.62 47.41 3.10 54.00 5.00 Z"></path>
</g><g fill="#FFFFFF" fill-opacity="1.00" stroke="None">
<path d="
M 54.00 5.00 
C 47.41 3.10 44.00 12.62 50.00 15.00 C 55.99 17.38 59.98 6.72 54.00 5.00 Z"></path>
</g><g fill="#000000" fill-opacity="1.00" stroke="None">
<path d="
M 84.00 23.00 
C 74.51 29.74 73.29 46.16 64.00 53.00
C 61.53 43.04 53.86 34.91 51.00 25.00
C 44.52 26.92 42.96 35.86 39.77 41.77 C 36.58 47.68 31.70 54.16 31.00 61.00
C 40.28 54.20 42.14 39.54 50.00 31.00
C 53.28 40.11 57.20 41.86 60.23 51.77 C 63.26 61.68 69.19 56.09 72.08 48.08 C 74.97 40.06 79.09 35.96 83.00 29.00
C 89.18 38.54 90.11 52.70 99.00 59.00
C 96.18 46.32 88.29 35.27 84.00 23.00 Z"></path>
</g><g fill="#000000" fill-opacity="1.00" stroke="None">
<path d="
M 6.00 25.00 
C -0.69 28.68 7.25 36.96 9.23 42.77 C 11.20 48.59 15.68 55.76 17.00 62.00
C 23.37 59.81 25.44 50.99 29.08 45.08 C 32.71 39.16 36.98 31.96 38.00 25.00
C 32.00 26.18 31.48 35.19 27.92 39.92 C 24.36 44.65 22.27 50.66 20.00 56.00
C 13.86 47.88 9.74 35.31 6.00 25.00 Z"></path>
</g></svg></g></g><defs><clipPath id="SvgjsClipPath1264"><rect width="1000" height="1000" x="0" y="0" rx="500" ry="500"></rect></clipPath></defs></svg>